<svg width="800" height="500" viewBox="0 0 800 500" fill="none" xmlns="http://www.w3.org/2000/svg">
<rect width="800" height="500" fill="black"/>
<rect y="78" width="150" height="352" rx="10" fill="#303030"/>
<rect x="295" y="248" width="150" height="182" rx="10" fill="#303030"/>
<rect x="590" y="417" width="150" height="13" rx="6.5" fill="#00C800"/>
<path d="M56.3301 455.536H52.5825L49.8237 465.57H49.604L46.8208 455.536H43L47.6753 469H51.6792L56.3301 455.536Z" fill="white"/>
<path d="M65.3877 469.452C69.7456 469.452 72.3823 465.997 72.3823 460.174C72.3823 454.327 69.709 450.934 65.3877 450.934C61.0542 450.934 58.3931 454.327 58.3931 460.162C58.3931 466.009 61.0298 469.452 65.3877 469.452ZM65.3877 466.449C63.3735 466.449 62.1284 464.276 62.1284 460.162C62.1284 456.073 63.3857 453.949 65.3877 453.949C67.4019 453.949 68.647 456.061 68.647 460.162C68.647 464.288 67.4141 466.449 65.3877 466.449Z" fill="white"/>
<path d="M76.9966 469.33C78.3149 469.33 79.1572 468.438 79.1572 467.206C79.1572 465.973 78.3149 465.094 76.9966 465.094C75.6904 465.094 74.8359 465.973 74.8359 467.206C74.8359 468.438 75.6904 469.33 76.9966 469.33Z" fill="white"/>
<path d="M86.0908 469H89.7773V451.385H86.103L81.5498 454.522V457.953L85.8711 454.974H86.0908V469Z" fill="white"/>
<path d="M94.4648 456.659V456.72H97.8828V456.646C97.8828 455.023 99.0547 453.9 100.764 453.9C102.375 453.9 103.522 454.901 103.522 456.317C103.522 457.464 102.9 458.38 100.422 460.797L94.6724 466.424V469H107.38V465.936H99.665V465.716L103.034 462.506C106.086 459.637 107.124 457.989 107.124 456.073C107.124 453.045 104.56 450.934 100.886 450.934C97.0771 450.934 94.4648 453.253 94.4648 456.659Z" fill="white"/>
<path d="M57.541 48.4248H59.7261C61.7036 48.4248 62.9121 49.377 62.9121 50.915C62.9121 52.4165 61.6304 53.4541 59.7871 53.4541C57.895 53.4541 56.6377 52.5142 56.5278 51.0249H53C53.1587 54.3452 55.8198 56.5181 59.7505 56.5181C63.7666 56.5181 66.6719 54.2842 66.6719 51.1958C66.6719 48.8765 65.1582 47.2651 62.7412 46.9966V46.7769C64.7065 46.374 65.9883 44.7871 65.9883 42.7485C65.9883 39.9775 63.3882 38 59.7749 38C55.9297 38 53.4517 40.0996 53.3296 43.4321H56.7354C56.833 41.9062 57.9683 40.9419 59.6772 40.9419C61.3984 40.9419 62.4971 41.8452 62.4971 43.2612C62.4971 44.7017 61.3618 45.6782 59.6895 45.6782H57.541V48.4248Z" fill="white"/>
<path d="M74.2646 48.4248H76.4497C78.4272 48.4248 79.6357 49.377 79.6357 50.915C79.6357 52.4165 78.354 53.4541 76.5107 53.4541C74.6187 53.4541 73.3613 52.5142 73.2515 51.0249H69.7236C69.8823 54.3452 72.5435 56.5181 76.4741 56.5181C80.4902 56.5181 83.3955 54.2842 83.3955 51.1958C83.3955 48.8765 81.8818 47.2651 79.4648 46.9966V46.7769C81.4302 46.374 82.7119 44.7871 82.7119 42.7485C82.7119 39.9775 80.1118 38 76.4985 38C72.6533 38 70.1753 40.0996 70.0532 43.4321H73.459C73.5566 41.9062 74.6919 40.9419 76.4009 40.9419C78.1221 40.9419 79.2207 41.8452 79.2207 43.2612C79.2207 44.7017 78.0854 45.6782 76.4131 45.6782H74.2646V48.4248Z" fill="white"/>
<path d="M86.3862 46.5571C86.3862 48.6323 87.6558 49.8774 90.2681 50.4512L92.7095 51.0005C93.8936 51.2568 94.4062 51.6597 94.4062 52.3188C94.4062 53.1855 93.4541 53.7593 92.0747 53.7593C90.6587 53.7593 89.792 53.2344 89.5234 52.3188H86.0566C86.3008 54.9067 88.4492 56.3594 92.0015 56.3594C95.5293 56.3594 97.9341 54.6016 97.9341 51.916C97.9341 49.9019 96.7622 48.8032 94.1499 48.2295L91.623 47.6802C90.3779 47.3994 89.8042 46.9966 89.8042 46.3374C89.8042 45.4829 90.7441 44.9092 92.0137 44.9092C93.332 44.9092 94.1499 45.4463 94.333 46.313H97.6167C97.4214 43.7373 95.4072 42.3091 91.9893 42.3091C88.6323 42.3091 86.3862 44.0059 86.3862 46.5571Z" fill="white"/>
<path d="M349.33 455.536H345.583L342.824 465.57H342.604L339.821 455.536H336L340.675 469H344.679L349.33 455.536Z" fill="white"/>
<path d="M358.388 469.452C362.746 469.452 365.382 465.997 365.382 460.174C365.382 454.327 362.709 450.934 358.388 450.934C354.054 450.934 351.393 454.327 351.393 460.162C351.393 466.009 354.03 469.452 358.388 469.452ZM358.388 466.449C356.374 466.449 355.128 464.276 355.128 460.162C355.128 456.073 356.386 453.949 358.388 453.949C360.402 453.949 361.647 456.061 361.647 460.162C361.647 464.288 360.414 466.449 358.388 466.449Z" fill="white"/>
<path d="M369.997 469.33C371.315 469.33 372.157 468.438 372.157 467.206C372.157 465.973 371.315 465.094 369.997 465.094C368.69 465.094 367.836 465.973 367.836 467.206C367.836 468.438 368.69 469.33 369.997 469.33Z" fill="white"/>
<path d="M376.662 469H380.519L387.88 454.449V451.373H375.282V454.413H384.169V454.632L376.662 469Z" fill="white"/>
<path d="M397.218 469.452C401.808 469.452 404.567 465.912 404.567 460.052C404.567 457.647 404.066 455.621 403.09 454.107C401.869 452.044 399.818 450.934 397.279 450.934C393.336 450.934 390.541 453.534 390.541 457.196C390.541 460.565 392.995 463.031 396.339 463.031C398.39 463.031 400.026 462.091 400.832 460.431H400.856C400.856 460.431 400.917 460.431 400.941 460.431C400.978 460.431 401.051 460.431 401.051 460.431C401.125 464.093 399.66 466.424 397.243 466.424C395.863 466.424 394.765 465.692 394.423 464.532H390.773C391.273 467.462 393.874 469.452 397.218 469.452ZM397.304 460.187C395.46 460.187 394.118 458.88 394.118 457.074C394.118 455.316 395.509 453.949 397.316 453.949C399.123 453.949 400.502 455.328 400.502 457.11C400.502 458.88 399.147 460.187 397.304 460.187Z" fill="white"/>
<path d="M355.541 226.627H359.228V209.012H355.553L351 212.149V215.58L355.321 212.601H355.541V226.627Z" fill="white"/>
<path d="M364.904 226.627H368.761L376.122 212.076V209H363.524V212.04H372.411V212.259L364.904 226.627Z" fill="white"/>
<path d="M378.344 217.118C378.344 219.193 379.613 220.438 382.226 221.012L384.667 221.561C385.851 221.817 386.364 222.22 386.364 222.879C386.364 223.746 385.412 224.32 384.032 224.32C382.616 224.32 381.75 223.795 381.481 222.879H378.014C378.258 225.467 380.407 226.92 383.959 226.92C387.487 226.92 389.892 225.162 389.892 222.477C389.892 220.462 388.72 219.364 386.107 218.79L383.581 218.241C382.335 217.96 381.762 217.557 381.762 216.898C381.762 216.043 382.702 215.47 383.971 215.47C385.29 215.47 386.107 216.007 386.291 216.874H389.574C389.379 214.298 387.365 212.87 383.947 212.87C380.59 212.87 378.344 214.566 378.344 217.118Z" fill="white"/>
<path d="M666.33 455.536H662.583L659.824 465.57H659.604L656.821 455.536H653L657.675 469H661.679L666.33 455.536Z" fill="white"/>
<path d="M672.995 469H676.682V451.385H673.007L668.454 454.522V457.953L672.775 454.974H672.995V469Z" fill="white"/>
<path d="M645.541 391.066H649.228V373.452H645.553L641 376.589V380.019L645.321 377.041H645.541V391.066Z" fill="white"/>
<path d="M655.758 395.839L657.98 388.21H654.501L653.378 395.839H655.758Z" fill="white"/>
<path d="M661.679 378.725V378.786H665.097V378.713C665.097 377.089 666.269 375.966 667.978 375.966C669.589 375.966 670.736 376.967 670.736 378.383C670.736 379.531 670.114 380.446 667.636 382.863L661.886 388.491V391.066H674.594V388.002H666.879V387.783L670.248 384.572C673.3 381.704 674.337 380.056 674.337 378.139C674.337 375.112 671.774 373 668.1 373C664.291 373 661.679 375.319 661.679 378.725Z" fill="white"/>
<path d="M677.67 381.557C677.67 383.632 678.939 384.877 681.552 385.451L683.993 386C685.177 386.257 685.69 386.66 685.69 387.319C685.69 388.186 684.738 388.759 683.358 388.759C681.942 388.759 681.076 388.234 680.807 387.319H677.34C677.584 389.907 679.733 391.359 683.285 391.359C686.813 391.359 689.218 389.602 689.218 386.916C689.218 384.902 688.046 383.803 685.434 383.229L682.907 382.68C681.662 382.399 681.088 381.997 681.088 381.337C681.088 380.483 682.028 379.909 683.297 379.909C684.616 379.909 685.434 380.446 685.617 381.313H688.9C688.705 378.737 686.691 377.309 683.273 377.309C679.916 377.309 677.67 379.006 677.67 381.557Z" fill="white"/>
<path d="M687.234 7.7251V7.78613H690.652V7.71289C690.652 6.08936 691.824 4.96631 693.533 4.96631C695.144 4.96631 696.292 5.96729 696.292 7.3833C696.292 8.53076 695.669 9.44629 693.191 11.8633L687.442 17.4907V20.0664H700.149V17.0024H692.434V16.7827L695.803 13.5723C698.855 10.7036 699.893 9.05566 699.893 7.13916C699.893 4.11182 697.329 2 693.655 2C689.846 2 687.234 4.31934 687.234 7.7251Z" fill="#00C800"/>
<path d="M704.312 20.0664H708.169L715.53 5.51562V2.43945H702.932V5.479H711.819V5.69873L704.312 20.0664Z" fill="#00C800"/>
<path d="M725.076 20.5181C729.116 20.5181 731.814 17.9668 731.814 14.2314C731.814 10.7769 729.446 8.32324 726.101 8.32324C724.356 8.32324 723.111 8.97021 722.366 10.0444H722.146L722.537 5.51562H730.752V2.45166H719.68L718.802 12.6689H722.097C722.708 11.6802 723.745 11.082 725.113 11.082C726.98 11.082 728.299 12.376 728.299 14.3169C728.299 16.2334 726.992 17.5029 725.1 17.5029C723.428 17.5029 722.134 16.5264 721.927 15.0615H718.521C718.631 18.2109 721.243 20.5181 725.076 20.5181Z" fill="#00C800"/>
<path d="M741.8 20.5181C746.157 20.5181 748.794 17.0635 748.794 11.2407C748.794 5.39355 746.121 2 741.8 2C737.466 2 734.805 5.39355 734.805 11.2285C734.805 17.0757 737.442 20.5181 741.8 20.5181ZM741.8 17.5151C739.785 17.5151 738.54 15.3423 738.54 11.2285C738.54 7.13916 739.798 5.01514 741.8 5.01514C743.814 5.01514 745.059 7.12695 745.059 11.2285C745.059 15.3545 743.826 17.5151 741.8 17.5151Z" fill="#00C800"/>
<path d="M759.402 6.50439C759.402 3.83105 757.742 2.04883 755.276 2.04883C752.81 2.04883 751.15 3.84326 751.15 6.50439C751.15 9.18994 752.823 10.9844 755.276 10.9844C757.742 10.9844 759.402 9.18994 759.402 6.50439ZM755.276 8.64062C754.422 8.64062 753.872 7.82275 753.872 6.50439C753.872 5.18604 754.409 4.36816 755.276 4.36816C756.155 4.36816 756.68 5.16162 756.68 6.50439C756.68 7.82275 756.131 8.64062 755.276 8.64062ZM756.533 20.0664L761.709 11.7534L768.472 2.45166H765.042L759.744 10.8379L753.091 20.0664H756.533ZM770.327 16.0015C770.327 13.3159 768.667 11.5337 766.201 11.5337C763.748 11.5337 762.088 13.3281 762.088 16.0015C762.088 18.6748 763.748 20.4692 766.201 20.4692C768.667 20.4692 770.327 18.6748 770.327 16.0015ZM766.201 18.1255C765.347 18.1255 764.798 17.3076 764.798 15.9893C764.798 14.6709 765.335 13.8652 766.201 13.8652C767.08 13.8652 767.605 14.6465 767.605 15.9893C767.605 17.3076 767.056 18.1255 766.201 18.1255Z" fill="#00C800"/>
<path d="M666 26.259V35.0664H667.843V32.332H669.583C671.438 32.332 672.726 31.1174 672.726 29.3047C672.726 27.4736 671.487 26.259 669.674 26.259H666ZM667.843 27.7727H669.186C670.248 27.7727 670.852 28.3098 670.852 29.3108C670.852 30.2996 670.236 30.8367 669.18 30.8367H667.843V27.7727Z" fill="#00C800"/>
<path d="M680.258 33.4917H676.266V31.3494H680.032V29.8906H676.266V27.8337H680.258V26.259H674.423V35.0664H680.258V33.4917Z" fill="#00C800"/>
<path d="M684.042 27.7483H685.641C686.557 27.7483 687.13 28.2732 687.13 29.1094C687.13 29.9578 686.587 30.4583 685.659 30.4583H684.042V27.7483ZM684.042 31.8743H685.55L687.191 35.0664H689.279L687.423 31.5874C688.437 31.1846 689.022 30.208 689.022 29.085C689.022 27.3333 687.832 26.259 685.897 26.259H682.199V35.0664H684.042V31.8743Z" fill="#00C800"/>
<path d="M692.721 35.0664V31.6362H696.304V30.1287H692.721V27.8337H696.646V26.259H690.878V35.0664H692.721Z" fill="#00C800"/>
<path d="M702.2 26.0332C699.612 26.0332 697.958 27.8032 697.958 30.6597C697.958 33.5161 699.588 35.2922 702.2 35.2922C704.806 35.2922 706.43 33.5161 706.43 30.6597C706.43 27.8093 704.8 26.0332 702.2 26.0332ZM702.2 27.6506C703.634 27.6506 704.55 28.8164 704.55 30.6597C704.55 32.4968 703.634 33.6748 702.2 33.6748C700.753 33.6748 699.844 32.4968 699.844 30.6597C699.844 28.8164 700.772 27.6506 702.2 27.6506Z" fill="#00C800"/>
<path d="M710.019 27.7483H711.618C712.533 27.7483 713.107 28.2732 713.107 29.1094C713.107 29.9578 712.564 30.4583 711.636 30.4583H710.019V27.7483ZM710.019 31.8743H711.526L713.168 35.0664H715.255L713.4 31.5874C714.413 31.1846 714.999 30.208 714.999 29.085C714.999 27.3333 713.809 26.259 711.874 26.259H708.175V35.0664H710.019V31.8743Z" fill="#00C800"/>
<path d="M726.181 35.0664V26.259H724.014L721.573 32.1794H721.463L719.027 26.259H716.854V35.0664H718.563V29.1765H718.661L720.907 34.5598H722.134L724.374 29.1765H724.472V35.0664H726.181Z" fill="#00C800"/>
<path d="M733.975 35.0664H735.971L732.913 26.259H730.746L727.688 35.0664H729.538L730.215 32.9668H733.31L733.975 35.0664ZM731.717 28.0901H731.826L732.919 31.5447H730.612L731.717 28.0901Z" fill="#00C800"/>
<path d="M739.236 35.0664V29.5549H739.346L743.411 35.0664H744.937V26.259H743.173V31.7461H743.063L739.01 26.259H737.472V35.0664H739.236Z" fill="#00C800"/>
<path d="M750.821 35.2922C752.945 35.2922 754.495 33.98 754.647 32.0757H752.853C752.676 33.0461 751.883 33.6687 750.827 33.6687C749.435 33.6687 748.574 32.5151 748.574 30.6597C748.574 28.8042 749.435 27.6567 750.821 27.6567C751.87 27.6567 752.67 28.322 752.847 29.3352H754.641C754.507 27.4187 752.908 26.0332 750.821 26.0332C748.263 26.0332 746.688 27.7971 746.688 30.6597C746.688 33.5283 748.269 35.2922 750.821 35.2922Z" fill="#00C800"/>
<path d="M762.179 33.4917H758.188V31.3494H761.953V29.8906H758.188V27.8337H762.179V26.259H756.344V35.0664H762.179V33.4917Z" fill="#00C800"/>
<path d="M775.082 31.4714V30.3484H771.383V31.7339H773.294L773.288 31.8926C773.251 32.9546 772.415 33.6687 771.206 33.6687C769.754 33.6687 768.838 32.5212 768.838 30.6353C768.838 28.7859 769.711 27.6567 771.133 27.6567C772.158 27.6567 772.897 28.1755 773.172 29.0667H775.003C774.746 27.2356 773.214 26.0332 771.133 26.0332C768.57 26.0332 766.952 27.8154 766.952 30.6536C766.952 33.5344 768.557 35.2922 771.176 35.2922C773.581 35.2922 775.082 33.8274 775.082 31.4714Z" fill="#00C800"/>
<path d="M782.29 35.0664H784.286L781.228 26.259H779.062L776.004 35.0664H777.853L778.531 32.9668H781.625L782.29 35.0664ZM780.032 28.0901H780.142L781.234 31.5447H778.927L780.032 28.0901Z" fill="#00C800"/>
<path d="M787.631 35.0664V26.259H785.788V35.0664H787.631Z" fill="#00C800"/>
<path d="M791.531 35.0664V29.5549H791.641L795.706 35.0664H797.232V26.259H795.468V31.7461H795.358L791.305 26.259H789.767V35.0664H791.531Z" fill="#00C800"/>
<path d="M672.091 2.58398C672.29 2.30001 672.71 2.30001 672.909 2.58398L679.309 11.713C679.542 12.0443 679.305 12.5 678.9 12.5H666.1C665.695 12.5 665.458 12.0443 665.691 11.713L672.091 2.58398Z" fill="#00C800"/>
</svg>
