<svg width="38" height="38" viewBox="0 0 38 38" fill="none" xmlns="http://www.w3.org/2000/svg">
<path d="M19 5.88294C23.2722 5.88294 23.7782 5.8992 25.4653 5.97618C27.0253 6.04737 27.8725 6.30803 28.4363 6.52708C29.1831 6.81733 29.7162 7.16411 30.276 7.72397C30.8359 8.28383 31.1827 8.81688 31.4729 9.56366C31.692 10.1275 31.9526 10.9747 32.0238 12.5346C32.1008 14.2218 32.1171 14.7278 32.1171 19C32.1171 23.2722 32.1008 23.7782 32.0238 25.4654C31.9526 27.0254 31.692 27.8725 31.4729 28.4364C31.1827 29.1832 30.8359 29.7162 30.276 30.2761C29.7162 30.836 29.1831 31.1827 28.4363 31.4729C27.8725 31.692 27.0253 31.9527 25.4653 32.0239C23.7784 32.1009 23.2724 32.1171 19 32.1171C14.7275 32.1171 14.2215 32.1009 12.5346 32.0239C10.9746 31.9527 10.1275 31.692 9.56366 31.4729C8.81682 31.1827 8.28376 30.836 7.7239 30.2761C7.16404 29.7162 6.81727 29.1832 6.52708 28.4364C6.30796 27.8725 6.04731 27.0254 5.97611 25.4654C5.89914 23.7782 5.88288 23.2722 5.88288 19C5.88288 14.7278 5.89914 14.2218 5.97611 12.5347C6.04731 10.9747 6.30796 10.1275 6.52708 9.56366C6.81727 8.81688 7.16404 8.28383 7.7239 7.72397C8.28376 7.16411 8.81682 6.81733 9.56366 6.52708C10.1275 6.30803 10.9746 6.04737 12.5346 5.97618C14.2218 5.8992 14.7278 5.88294 19 5.88294ZM19 3C14.6546 3 14.1098 3.01842 12.4032 3.09628C10.7001 3.17402 9.53711 3.44446 8.51933 3.84001C7.46719 4.2489 6.57491 4.796 5.68542 5.68548C4.79593 6.57497 4.24884 7.46725 3.83995 8.51939C3.44439 9.53717 3.17396 10.7002 3.09622 12.4033C3.01835 14.1098 3 14.6547 3 19C3 23.3454 3.01835 23.8903 3.09622 25.5968C3.17396 27.2999 3.44439 28.4629 3.83995 29.4807C4.24884 30.5327 4.79593 31.4251 5.68542 32.3146C6.57491 33.2041 7.46719 33.7512 8.51933 34.1601C9.53711 34.5556 10.7001 34.826 12.4032 34.9038C14.1098 34.9816 14.6546 35 19 35C23.3453 35 23.8902 34.9816 25.5967 34.9038C27.2998 34.826 28.4628 34.5556 29.4806 34.1601C30.5327 33.7512 31.425 33.2041 32.3145 32.3146C33.204 31.4251 33.7511 30.5328 34.16 29.4807C34.5555 28.4629 34.826 27.2999 34.9037 25.5968C34.9816 23.8903 35 23.3454 35 19C35 14.6547 34.9816 14.1098 34.9037 12.4033C34.826 10.7002 34.5555 9.53717 34.16 8.51939C33.7511 7.46725 33.204 6.57497 32.3145 5.68548C31.425 4.796 30.5327 4.2489 29.4806 3.84001C28.4628 3.44446 27.2998 3.17402 25.5967 3.09628C23.8902 3.01842 23.3453 3 19 3ZM19 10.7838C14.4623 10.7838 10.7837 14.4623 10.7837 19C10.7837 23.5377 14.4623 27.2163 19 27.2163C23.5377 27.2163 27.2162 23.5377 27.2162 19C27.2162 14.4623 23.5377 10.7838 19 10.7838ZM19 24.3334C16.0545 24.3334 13.6666 21.9455 13.6666 19C13.6666 16.0545 16.0545 13.6667 19 13.6667C21.9455 13.6667 24.3333 16.0545 24.3333 19C24.3333 21.9455 21.9455 24.3334 19 24.3334ZM29.4608 10.4592C29.4608 11.5196 28.6012 12.3792 27.5408 12.3792C26.4804 12.3792 25.6208 11.5196 25.6208 10.4592C25.6208 9.39878 26.4804 8.53921 27.5408 8.53921C28.6012 8.53921 29.4608 9.39878 29.4608 10.4592Z" fill="white"/>
</svg>
