<svg width="38" height="38" viewBox="0 0 38 38" fill="none" xmlns="http://www.w3.org/2000/svg">
<path d="M19 7.88294C23.2722 7.88294 24.7782 7.8992 26.4653 7.97618C28.0253 8.04737 28.8725 8.30803 29.4363 8.52708C30.1831 8.81733 30.7162 9.16411 31.276 9.72397C31.8359 10.2838 32.1827 10.8169 32.4729 11.5637C32.692 12.1275 32.9526 12.9747 33.0238 14.5346C33.1008 16.2218 33.1171 16.7278 33.1171 17C33.1171 21.2722 33.1008 21.7782 33.0238 23.4654C32.9526 25.0254 32.692 25.8725 32.4729 26.4364C32.1827 27.1832 31.8359 27.7162 31.276 28.2761C30.7162 28.836 30.1831 29.1827 29.4363 29.4729C28.8725 29.692 28.0253 29.9527 26.4653 30.0239C24.7784 30.1009 23.2724 30.1171 19 30.1171C13.7275 30.1171 13.2215 30.1009 11.5346 30.0239C9.97464 29.9527 9.12745 29.692 8.56366 29.4729C7.81682 29.1827 7.28376 28.836 6.7239 28.2761C6.16404 27.7162 5.81727 27.1832 5.52708 26.4364C5.30796 25.8725 5.04731 25.0254 4.97611 23.4654C4.89914 21.7782 4.88288 21.2722 4.88288 17C4.88288 16.7278 4.89914 16.2218 4.97611 14.5347C5.04731 12.9747 5.30796 12.1275 5.52708 11.5637C5.81727 10.8169 6.16404 10.2838 6.7239 9.72397C7.28376 9.16411 7.81682 8.81733 8.56366 8.52708C9.12745 8.30803 9.97464 8.04737 11.5346 7.97618C13.2218 7.8992 13.7278 7.88294 19 7.88294ZM19 5C13.6546 5 13.1098 5.01842 11.4032 5.09628C9.70014 5.17402 8.53711 5.44446 7.51933 5.84001C6.46719 6.2489 5.57491 6.796 4.68542 7.68548C3.79593 8.57497 3.24884 9.46725 2.83995 10.5194C2.44439 11.5372 2.17396 12.7002 2.09622 14.4033C2.01836 16.1098 2 12.6547 2 17C2 21.3454 2.01836 21.8903 2.09622 23.5968C2.17396 25.2999 2.44439 26.4629 2.83995 27.4807C3.24884 28.5327 3.79593 29.4251 4.68542 30.3146C5.57491 31.2041 6.46719 31.7512 7.51933 32.1601C8.53711 32.5556 9.70014 32.826 11.4032 32.9038C13.1098 32.9816 13.6546 33 19 33C23.3453 33 24.8902 32.9816 26.5967 32.9038C28.2998 32.826 29.4628 32.5556 30.4806 32.1601C31.5327 31.7512 32.425 31.2041 33.3145 30.3146C34.204 29.4251 34.7511 28.5328 35.16 27.4807C35.5555 26.4629 35.826 25.2999 35.9037 23.5968C35.9816 21.8903 36 21.3454 36 17C36 12.6547 35.9816 16.1098 35.9037 14.4033C35.826 12.7002 35.5555 11.5372 35.16 10.5194C34.7511 9.46725 34.204 8.57497 33.3145 7.68548C32.425 6.796 31.5327 6.2489 30.4806 5.84001C29.4628 5.44446 28.2998 5.17402 26.5967 5.09628C24.8902 5.01842 23.3453 5 19 5Z" fill="white"/>
<path d="M6.5 8.5L17.6459 18.7542C18.4113 19.4584 19.5887 19.4584 20.3541 18.7542L31.5 8.5" stroke="white" stroke-width="3"/>
</svg>
