<svg width="180" height="50" viewBox="0 0 180 50" fill="none" xmlns="http://www.w3.org/2000/svg">
<path fill-rule="evenodd" clip-rule="evenodd" d="M21.0698 46.1396C32.7058 46.1396 42.1396 36.7058 42.1396 25.0698C42.1396 13.4331 32.7058 4 21.0698 4C9.43314 4 0 13.4324 0 25.0698C0 36.7058 9.43242 46.1396 21.0698 46.1396ZM17.9095 25.0698H23.8788C24.2939 25.0698 24.7048 24.9881 25.0883 24.8292C25.4717 24.6704 25.8201 24.4376 26.1136 24.1441C26.4071 23.8507 26.6399 23.5023 26.7987 23.1188C26.9576 22.7354 27.0393 22.3244 27.0393 21.9094C27.0393 21.4943 26.9576 21.0833 26.7987 20.6999C26.6399 20.3164 26.4071 19.968 26.1136 19.6746C25.8201 19.3811 25.4717 19.1483 25.0883 18.9895C24.7048 18.8306 24.2939 18.7489 23.8788 18.7489H17.9095V25.0698ZM13.6956 14.5349H23.8788C27.9516 14.5349 31.2533 17.8366 31.2533 21.9094C31.2533 25.9821 27.9516 29.2838 23.8788 29.2838H17.9095V35.6047H13.6956V14.5349Z" fill="white"/>
<path d="M64.2737 22.4944C64.2737 21.335 63.3831 20.6324 62.2258 20.6324H59.1237V24.3348H62.2266C63.3838 24.3348 64.2744 23.6322 64.2744 22.4944H64.2737ZM56.1859 32.0926V18.0463H62.6387C65.6392 18.0463 67.2721 20.074 67.2721 22.4944C67.2721 24.894 65.6183 26.921 62.6387 26.921H59.1237V32.0926H56.1866H56.1859ZM69.0606 32.0926V21.8524H71.6856V23.197C72.4098 22.328 73.6312 21.6045 74.8728 21.6045V24.1691C74.6854 24.128 74.4584 24.1078 74.1486 24.1078C73.2796 24.1078 72.1201 24.6036 71.6856 25.2463V32.0926H69.0598H69.0606ZM83.71 26.8381C83.71 25.2867 82.7977 23.9421 81.1433 23.9421C79.5083 23.9421 78.5996 25.2867 78.5996 26.8388C78.5996 28.4104 79.5083 29.755 81.1433 29.755C82.7977 29.755 83.7093 28.4104 83.7093 26.8381H83.71ZM75.8679 26.8381C75.8679 24.0048 77.8538 21.6045 81.1433 21.6045C84.4536 21.6045 86.4396 24.004 86.4396 26.8381C86.4396 29.6721 84.4536 32.0926 81.1433 32.0926C77.8538 32.0926 75.8679 29.6721 75.8679 26.8381ZM95.2797 28.6172V25.0799C94.8451 24.4169 93.894 23.9421 93.0242 23.9421C91.5153 23.9421 90.4806 25.1209 90.4806 26.8388C90.4806 28.5754 91.5153 29.755 93.0242 29.755C93.894 29.755 94.8451 29.2794 95.2797 28.6165V28.6172ZM95.2797 32.0926V30.5621C94.4928 31.5543 93.4184 32.0926 92.197 32.0926C89.6944 32.0926 87.7705 30.1902 87.7705 26.8381C87.7705 23.5911 89.6534 21.6045 92.197 21.6045C93.3759 21.6045 94.4928 22.1017 95.2797 23.135V18.0463H97.9271V32.0926H95.2797ZM107.285 32.0926V30.5822C106.603 31.3273 105.403 32.0926 103.768 32.0926C101.576 32.0926 100.542 30.8928 100.542 28.948V21.8524H103.168V27.9139C103.168 29.3003 103.892 29.755 105.009 29.755C106.022 29.755 106.83 29.1966 107.285 28.6165V21.8524H109.912V32.0926H107.285ZM111.885 26.8381C111.885 23.7771 114.119 21.6045 117.181 21.6045C119.229 21.6045 120.47 22.4944 121.132 23.4045L119.414 25.0172C118.939 24.3139 118.215 23.9421 117.305 23.9421C115.712 23.9421 114.596 25.1008 114.596 26.8388C114.596 28.5754 115.712 29.755 117.305 29.755C118.215 29.755 118.939 29.3414 119.414 28.6583L121.132 30.2724C120.47 31.1825 119.229 32.0926 117.181 32.0926C114.119 32.0926 111.885 29.9207 111.885 26.8381ZM123.391 29.3414V24.1489H121.737V21.8524H123.391V19.1214H126.019V21.8524H128.045V24.1489H126.019V28.6381C126.019 29.2794 126.348 29.755 126.928 29.755C127.32 29.755 127.695 29.6102 127.838 29.4452L128.398 31.4505C128.005 31.8036 127.301 32.0926 126.204 32.0926C124.363 32.0926 123.391 31.1414 123.391 29.3414V29.3414ZM144.873 32.0926V26.031H138.356V32.0926H135.42V18.0463H138.356V23.4658H144.873V18.047H147.831V32.0926H144.873ZM157.232 32.0926V30.5822C156.55 31.3273 155.35 32.0926 153.716 32.0926C151.523 32.0926 150.489 30.8928 150.489 28.948V21.8524H153.115V27.9139C153.115 29.3003 153.839 29.755 154.957 29.755C155.97 29.755 156.778 29.1966 157.232 28.6165V21.8524H159.86V32.0926H157.232ZM169.214 32.0926V25.8048C169.214 24.4184 168.492 23.9428 167.374 23.9428C166.34 23.9428 165.554 24.5221 165.098 25.1015V32.0933H162.473V21.8524H165.098V23.135C165.74 22.3907 166.981 21.6045 168.595 21.6045C170.808 21.6045 171.863 22.8453 171.863 24.7895V32.0926H169.215H169.214ZM174.993 29.3414V24.1489H173.34V21.8524H174.994V19.1214H177.622V21.8524H179.648V24.1489H177.622V28.6381C177.622 29.2794 177.952 29.755 178.531 29.755C178.924 29.755 179.298 29.6102 179.442 29.4452L180 31.4505C179.608 31.8036 178.903 32.0926 177.807 32.0926C175.966 32.0926 174.994 31.1414 174.994 29.3414" fill="white"/>
</svg>
