<svg width="180" height="90" viewBox="0 0 180 90" fill="none" xmlns="http://www.w3.org/2000/svg">
<path fill-rule="evenodd" clip-rule="evenodd" d="M21.0698 66.1396C32.7058 66.1396 42.1396 56.7058 42.1396 45.0698C42.1396 33.4331 32.7058 24 21.0698 24C9.43314 24 0 33.4324 0 45.0698C0 56.7058 9.43242 66.1396 21.0698 66.1396ZM17.9095 45.0698H23.8788C24.2939 45.0698 24.7048 44.9881 25.0883 44.8292C25.4717 44.6704 25.8201 44.4376 26.1136 44.1441C26.4071 43.8507 26.6399 43.5023 26.7987 43.1188C26.9576 42.7354 27.0393 42.3244 27.0393 41.9094C27.0393 41.4943 26.9576 41.0833 26.7987 40.6999C26.6399 40.3164 26.4071 39.968 26.1136 39.6746C25.8201 39.3811 25.4717 39.1483 25.0883 38.9895C24.7048 38.8306 24.2939 38.7489 23.8788 38.7489H17.9095V45.0698ZM13.6956 34.5349H23.8788C27.9516 34.5349 31.2533 37.8366 31.2533 41.9094C31.2533 45.9821 27.9516 49.2838 23.8788 49.2838H17.9095V55.6047H13.6956V34.5349Z" fill="white"/>
<path d="M64.2736 42.4943C64.2736 41.3349 63.383 40.6323 62.2257 40.6323H59.1236V44.3347H62.2264C63.3837 44.3347 64.2743 43.6321 64.2743 42.4943H64.2736ZM56.1858 52.0925V38.0461H62.6386C65.6391 38.0461 67.272 40.0739 67.272 42.4943C67.272 44.8938 65.6182 46.9208 62.6386 46.9208H59.1236V52.0925H56.1865H56.1858ZM69.0604 52.0925V41.8523H71.6855V43.1969C72.4097 42.3278 73.6311 41.6044 74.8726 41.6044V44.1689C74.6853 44.1279 74.4583 44.1077 74.1485 44.1077C73.2794 44.1077 72.12 44.6034 71.6855 45.2462V52.0925H69.0597H69.0604ZM83.7099 46.838C83.7099 45.2866 82.7976 43.9419 81.1432 43.9419C79.5082 43.9419 78.5995 45.2866 78.5995 46.8387C78.5995 48.4103 79.5082 49.7549 81.1432 49.7549C82.7976 49.7549 83.7091 48.4103 83.7091 46.838H83.7099ZM75.8678 46.838C75.8678 44.0046 77.8537 41.6044 81.1432 41.6044C84.4535 41.6044 86.4394 44.0039 86.4394 46.838C86.4394 49.672 84.4535 52.0925 81.1432 52.0925C77.8537 52.0925 75.8678 49.672 75.8678 46.838ZM95.2795 48.6171V45.0797C94.845 44.4168 93.8939 43.9419 93.0241 43.9419C91.5152 43.9419 90.4805 45.1208 90.4805 46.8387C90.4805 48.5753 91.5152 49.7549 93.0241 49.7549C93.8939 49.7549 94.845 49.2793 95.2795 48.6164V48.6171ZM95.2795 52.0925V50.5619C94.4927 51.5542 93.4183 52.0925 92.1969 52.0925C89.6943 52.0925 87.7704 50.1901 87.7704 46.838C87.7704 43.591 89.6532 41.6044 92.1969 41.6044C93.3758 41.6044 94.4927 42.1016 95.2795 43.1349V38.0461H97.927V52.0925H95.2795ZM107.284 52.0925V50.5821C106.603 51.3272 105.403 52.0925 103.768 52.0925C101.576 52.0925 100.542 50.8927 100.542 48.9478V41.8523H103.168V47.9138C103.168 49.3002 103.892 49.7549 105.009 49.7549C106.022 49.7549 106.83 49.1964 107.284 48.6164V41.8523H109.912V52.0925H107.284ZM111.885 46.838C111.885 43.7769 114.118 41.6044 117.181 41.6044C119.229 41.6044 120.47 42.4943 121.132 43.4044L119.414 45.0171C118.939 44.3138 118.215 43.9419 117.305 43.9419C115.712 43.9419 114.595 45.1006 114.595 46.8387C114.595 48.5753 115.712 49.7549 117.305 49.7549C118.215 49.7549 118.939 49.3413 119.414 48.6582L121.132 50.2723C120.47 51.1824 119.229 52.0925 117.181 52.0925C114.118 52.0925 111.885 49.9206 111.885 46.838ZM123.391 49.3413V44.1488H121.736V41.8523H123.391V39.1213H126.019V41.8523H128.044V44.1488H126.019V48.638C126.019 49.2793 126.348 49.7549 126.928 49.7549C127.32 49.7549 127.695 49.61 127.838 49.445L128.398 51.4504C128.005 51.8035 127.301 52.0925 126.204 52.0925C124.363 52.0925 123.391 51.1413 123.391 49.3413V49.3413ZM144.873 52.0925V46.0309H138.356V52.0925H135.42V38.0461H138.356V43.4656H144.873V38.0469H147.831V52.0925H144.873ZM157.232 52.0925V50.5821C156.55 51.3272 155.35 52.0925 153.716 52.0925C151.523 52.0925 150.489 50.8927 150.489 48.9478V41.8523H153.115V47.9138C153.115 49.3002 153.839 49.7549 154.957 49.7549C155.97 49.7549 156.778 49.1964 157.232 48.6164V41.8523H159.86V52.0925H157.232ZM169.214 52.0925V45.8047C169.214 44.4183 168.492 43.9427 167.374 43.9427C166.34 43.9427 165.554 44.522 165.098 45.1014V52.0932H162.472V41.8523H165.098V43.1349C165.74 42.3905 166.981 41.6044 168.594 41.6044C170.808 41.6044 171.863 42.8452 171.863 44.7894V52.0925H169.215H169.214ZM174.993 49.3413V44.1488H173.34V41.8523H174.994V39.1213H177.622V41.8523H179.648V44.1488H177.622V48.638C177.622 49.2793 177.952 49.7549 178.531 49.7549C178.924 49.7549 179.298 49.61 179.442 49.445L180 51.4504C179.608 51.8035 178.903 52.0925 177.807 52.0925C175.966 52.0925 174.994 51.1413 174.994 49.3413" fill="white"/>
</svg>
