<?xml version="1.0" encoding="UTF-8" standalone="no"?>
<svg
   xmlns:dc="http://purl.org/dc/elements/1.1/"
   xmlns:cc="http://creativecommons.org/ns#"
   xmlns:rdf="http://www.w3.org/1999/02/22-rdf-syntax-ns#"
   xmlns:svg="http://www.w3.org/2000/svg"
   xmlns="http://www.w3.org/2000/svg"
   xmlns:sodipodi="http://sodipodi.sourceforge.net/DTD/sodipodi-0.dtd"
   xmlns:inkscape="http://www.inkscape.org/namespaces/inkscape"
   version="1.1"
   id="Layer_1"
   x="0px"
   y="0px"
   viewBox="0 0 1000 272.5"
   xml:space="preserve"
   sodipodi:docname="RTBF logo 2010 (white).svg"
   inkscape:version="1.0.1 (3bc2e813f5, 2020-09-07)"
   width="1000"
   height="272.5"><metadata
   id="metadata11806"><rdf:RDF><cc:Work
       rdf:about=""><dc:format>image/svg+xml</dc:format><dc:type
         rdf:resource="http://purl.org/dc/dcmitype/StillImage" /><dc:title></dc:title></cc:Work></rdf:RDF></metadata><defs
   id="defs11804">
	
	
	
	
	
	
	
	
	
	
	
	
	
	
	
	
	
	
	
	
	
	
	
	
	
</defs><sodipodi:namedview
   pagecolor="#ffffff"
   bordercolor="#666666"
   borderopacity="1"
   objecttolerance="10"
   gridtolerance="10"
   guidetolerance="10"
   inkscape:pageopacity="0"
   inkscape:pageshadow="2"
   inkscape:window-width="1600"
   inkscape:window-height="837"
   id="namedview11802"
   showgrid="false"
   inkscape:zoom="0.59294425"
   inkscape:cx="487.60626"
   inkscape:cy="206.21133"
   inkscape:window-x="-8"
   inkscape:window-y="-8"
   inkscape:window-maximized="1"
   inkscape:current-layer="Layer_1" />
<style
   type="text/css"
   id="style11747">
	.st0{fill:#034EA1;}
	.st1{fill:#FFFFFF;}
	.st2{fill:#050505;}
</style>

<g
   id="g25684"
   transform="matrix(0.76252282,0,0,0.76252282,416.80516,-257.48045)"
   style="fill:#ffffff;fill-opacity:1"><g
     id="g14335"
     transform="matrix(6.5992765,0,0,-6.5992765,-147.19797,584.71971)"
     style="fill:#ffffff;fill-opacity:1"><path
       d="m 0,0 h -18.683 l -0.052,-0.01 0.024,0.01 h 0.028 c -0.793,0 -1.4,0.214 -1.861,0.644 -0.473,0.439 -0.703,1.003 -0.703,1.728 v 12.052 h 21.213 c 0.709,0 1.528,0.093 2.234,0.777 0.638,0.611 0.949,1.374 0.949,2.268 0,0.877 -0.319,1.657 -0.972,2.297 -0.649,0.651 -1.418,0.976 -2.301,0.976 h -21.123 v 3.281 1.08 c 0,0.853 -0.315,1.611 -0.918,2.234 -0.617,0.635 -1.387,0.945 -2.271,0.945 -0.881,0 -1.663,-0.321 -2.299,-0.966 -0.649,-0.65 -0.982,-1.425 -0.982,-2.306 V -0.323 c 0,-4.054 1.957,-6.026 5.976,-6.026 l 21.832,0.022 c 0.852,0 1.604,0.298 2.232,0.91 0.641,0.619 0.951,1.38 0.951,2.264 0,0.854 -0.304,1.569 -0.97,2.23 C 1.688,-0.3 0.934,0 0,0"
       style="fill:#ffffff;fill-opacity:1;fill-rule:nonzero;stroke:none"
       id="path14337" /></g><g
     id="g14339"
     transform="matrix(6.5992765,0,0,-6.5992765,85.862129,448.11468)"
     style="fill:#ffffff;fill-opacity:1"><path
       d="m 0,0 -15.195,0.014 c -0.763,0 -1.564,-0.095 -2.241,-0.738 -0.627,-0.62 -0.947,-1.387 -0.947,-2.274 0,-0.888 0.334,-1.656 0.972,-2.306 0.652,-0.647 1.422,-0.969 2.305,-0.969 l 0.482,-0.003 h 0.145 11.553 c 0.759,0 1.339,-0.222 1.798,-0.675 0.448,-0.444 0.663,-1.021 0.663,-1.747 l 0.031,-9.641 c 0,-0.729 -0.225,-1.285 -0.694,-1.719 -0.476,-0.436 -1.086,-0.656 -1.852,-0.656 h -15.476 c -0.802,0 -1.416,0.22 -1.904,0.656 -0.475,0.434 -0.7,0.99 -0.7,1.719 l -0.039,22.758 c 0,0.848 -0.304,1.599 -0.918,2.232 -0.612,0.633 -1.375,0.956 -2.257,0.956 -0.889,0 -1.664,-0.331 -2.313,-0.976 -0.647,-0.647 -0.98,-1.421 -0.98,-2.303 v -25.267 c 0,-4.058 2.084,-6.112 6.164,-6.112 l 21.26,-0.014 c 4.08,0 6.142,2.045 6.142,6.065 V -5.93 C 5.999,-1.99 4.034,-0.053 0,0"
       style="fill:#ffffff;fill-opacity:1;fill-rule:nonzero;stroke:none"
       id="path14341" /></g><g
     id="g14343"
     transform="matrix(6.5992765,0,0,-6.5992765,352.80919,447.90349)"
     style="fill:#ffffff;fill-opacity:1"><path
       d="m 0,0 -23.792,-0.004 c -3.967,-0.085 -5.953,-2.079 -5.925,-5.922 0,-0.075 -0.129,-8.37 -0.129,-9.594 v -8.556 c 0,-0.857 0.318,-1.619 0.947,-2.25 0.626,-0.631 1.385,-0.95 2.236,-0.95 0.889,0 1.664,0.319 2.293,0.95 0.647,0.663 0.978,1.416 0.978,2.25 l 0.012,5.642 0.032,6.132 0.01,4.397 c 0,1.044 0.496,1.577 1.476,1.577 l 21.949,0.005 c 0.77,0 1.563,0.09 2.238,0.74 0.623,0.616 0.948,1.383 0.948,2.261 0,0.892 -0.329,1.671 -0.973,2.31 C 1.632,-0.343 0.861,0 0,0"
       style="fill:#ffffff;fill-opacity:1;fill-rule:nonzero;stroke:none"
       id="path14345" /></g><g
     id="g14347"
     transform="matrix(6.5992765,0,0,-6.5992765,-378.93157,448.02227)"
     style="fill:#ffffff;fill-opacity:1"><path
       d="m 0,0 h -17.515 c -0.299,-0.014 -0.562,0.014 -0.684,0.018 -0.456,0.01 -0.741,0.163 -1.003,0.551 -0.595,0.844 -1.873,1.143 -2.85,1.143 -0.98,0 -1.877,-0.385 -2.528,-1.091 -0.609,-0.672 -0.734,-1.389 -0.734,-2.254 v -3.802 c -0.012,-0.159 -0.02,-0.325 -0.02,-0.509 v -17.953 c 0,-0.861 0.331,-1.617 0.972,-2.267 0.644,-0.643 1.418,-0.968 2.31,-0.968 0.882,0 1.642,0.308 2.255,0.929 0.616,0.617 0.927,1.369 0.927,2.267 V -8.77 c 0,0.752 0.257,1.402 0.708,1.805 0.465,0.433 1.067,0.655 1.842,0.66 H 0.09 c 0.951,0 1.657,0.27 2.236,0.828 0.632,0.61 0.952,1.374 0.952,2.263 0,0.884 -0.326,1.664 -0.973,2.301 C 1.695,-0.302 0.935,0 0,0"
       style="fill:#ffffff;fill-opacity:1;fill-rule:nonzero;stroke:none"
       id="path14349" /></g><g
     id="g14351"
     transform="matrix(6.5992765,0,0,-6.5992765,315.34526,531.84629)"
     style="fill:#ffffff;fill-opacity:1"><path
       d="m 0,0 c -0.699,0.627 -1.568,0.953 -2.564,0.953 h -6.207 c -1.002,0 -1.863,-0.326 -2.572,-0.953 -0.732,-0.646 -1.102,-1.472 -1.102,-2.442 v -0.006 c 0,-0.967 0.37,-1.79 1.102,-2.441 0.709,-0.631 1.57,-0.95 2.572,-0.95 h 6.207 c 0.996,0 1.865,0.319 2.564,0.95 0.735,0.651 1.105,1.474 1.105,2.441 v 0.006 C 1.105,-1.473 0.735,-0.646 0,0"
       style="fill:#ffffff;fill-opacity:1;fill-rule:nonzero;stroke:none"
       id="path14353" /></g><g
     id="g14355"
     transform="matrix(6.5992765,0,0,-6.5992765,703.09912,517.38065)"
     style="fill:#ffffff;fill-opacity:1"><path
       d="m 0,0 -6.494,-0.047 h 6.122 C -0.125,-0.054 -0.004,-0.006 0,0"
       style="fill:#ffffff;fill-opacity:1;fill-rule:nonzero;stroke:none"
       id="path14357" /></g><g
     id="g14359"
     transform="matrix(6.5992765,0,0,-6.5992765,703.51487,511.13117)"
     style="fill:#ffffff;fill-opacity:1"><path
       d="M 0,0 C -0.007,0.12 -0.023,0.16 -0.106,0.235 -0.227,0.339 -0.313,0.371 -0.435,0.371 H -8.581 C -9.182,0.348 -9.341,0.202 -9.45,-0.232 l 0.023,-4.658 c 0.003,-0.284 0.083,-0.462 0.237,-0.607 0.176,-0.156 0.389,-0.237 0.705,-0.238 h 9.237 c 0.066,0.001 0.134,0.001 0.195,0.001 C 1.542,-5.735 2.323,-5.757 2.86,-6.281 3.146,-6.566 3.292,-6.95 3.292,-7.382 3.292,-7.909 3.165,-8.325 2.87,-8.622 2.436,-9.041 1.853,-9.065 1.171,-9.067 H 0.913 0.605 -9.036 c -2.372,0.002 -3.714,1.323 -3.718,3.651 l 0.004,5.505 -0.004,0.08 c -0.004,1.095 0.29,1.975 0.892,2.582 0.648,0.656 1.587,0.952 2.826,0.952 H -0.45 C 1.978,3.699 3.319,2.452 3.325,0.145 V -0.748 C 3.319,-3.041 1.907,-4.397 -0.45,-4.376 h -6.127 c -0.346,0.002 -1.128,-0.014 -1.686,0.538 -0.306,0.305 -0.459,0.72 -0.459,1.191 0,0.401 0.151,0.776 0.434,1.052 0.637,0.613 1.615,0.594 1.731,0.601 l 6.494,0.047 c 0.078,0.06 0.069,0.079 0.073,0.091 z m -14.494,-6.046 c 0,-1.941 -1.09,-3.019 -3.057,-3.021 l -9.833,0.002 c -1.965,0.004 -3.064,1.087 -3.067,3.045 V 5.674 c 0,0.46 0.181,0.883 0.515,1.214 0.335,0.338 0.761,0.514 1.224,0.514 0.459,0.004 0.877,-0.175 1.197,-0.508 0.321,-0.327 0.489,-0.736 0.481,-1.181 l 0.021,-10.53 c 0.002,-0.293 0.084,-0.475 0.251,-0.636 0.189,-0.163 0.406,-0.246 0.742,-0.246 l 7.161,-0.005 c 0.312,0.005 0.532,0.088 0.712,0.251 0.175,0.161 0.251,0.34 0.254,0.636 l -0.018,4.462 c -0.002,0.295 -0.08,0.495 -0.24,0.657 -0.176,0.168 -0.372,0.249 -0.684,0.253 h -5.344 -0.07 -0.221 c -0.463,-0.004 -0.882,0.173 -1.217,0.51 -0.333,0.333 -0.515,0.753 -0.509,1.216 -0.006,0.462 0.171,0.883 0.505,1.21 0.366,0.35 0.815,0.399 1.181,0.399 l 7.031,-0.006 c 1.939,-0.003 3.011,-1.057 2.989,-2.96 z m -18.596,0.503 c 0,-1.585 -1.284,-2.868 -2.872,-2.868 -1.582,0 -2.871,1.283 -2.871,2.868 0,1.587 1.289,2.875 2.871,2.875 1.588,0 2.872,-1.288 2.877,-2.875 z m 15.335,31.548 c -14.819,0 -26.835,-12.017 -26.835,-26.836 0,-14.824 12.016,-26.839 26.835,-26.839 14.822,0 26.837,12.015 26.837,26.839 0,14.819 -12.015,26.836 -26.837,26.836"
       style="fill:#ffffff;fill-opacity:1;fill-rule:nonzero;stroke:none"
       id="path14361" /></g></g><g
   id="g25628"
   transform="matrix(6.5992765,0,0,-6.5992765,1155.6257,1020.5187)"
   style="fill:#ffffff" /></svg>
