<svg width="923" height="384" viewBox="0 0 923 384" fill="none" xmlns="http://www.w3.org/2000/svg">
<g clip-path="url(#clip0_1401_6402)">
<circle cx="419.656" cy="152.503" r="6.99022" fill="white"/>
<circle cx="313.091" cy="105.431" r="6.99022" fill="#96FF00"/>
<circle cx="371.17" cy="123.058" r="6.99022" fill="white"/>
<circle cx="385.747" cy="115.611" r="6.99022" fill="#96FF00"/>
<circle cx="356.58" cy="164.5" r="6.99022" fill="#96FF00"/>
<circle cx="428.83" cy="287.238" r="6.99022" fill="#96FF00"/>
<circle cx="456.345" cy="169.815" r="6.99022" fill="#00C800"/>
<circle cx="440.831" cy="178.238" r="6.99022" fill="#96FF00"/>
<circle cx="380.058" cy="318.328" r="6.99022" fill="#96FF00"/>
<circle cx="519.648" cy="313.37" r="6.99022" fill="#96FF00"/>
<circle cx="631.056" cy="233.201" r="6.99022" fill="#96FF00"/>
<circle cx="512.813" cy="287.881" r="6.99022" fill="#00C800"/>
<circle cx="451.212" cy="193.076" r="6.99022" fill="#00C800"/>
<circle cx="397.893" cy="146.836" r="6.99022" fill="#96FF00"/>
<circle cx="259.113" cy="198.402" r="6.99022" fill="white"/>
<circle cx="432.094" cy="306.703" r="6.99022" fill="#96FF00"/>
<circle cx="458.957" cy="336.925" r="6.99022" fill="#96FF00"/>
<circle cx="447.817" cy="292.363" r="6.99022" fill="#96FF00"/>
<circle cx="460.673" cy="317.222" r="6.99022" fill="#00C800"/>
<circle cx="436.858" cy="354.227" r="6.99022" fill="#00C800"/>
<circle cx="459.435" cy="296.644" r="6.99022" fill="white"/>
<circle cx="434.274" cy="377.01" r="6.99022" fill="white"/>
<circle cx="317.378" cy="197.544" r="6.99022" fill="#00C800"/>
<circle cx="349.303" cy="232.777" r="6.99022" fill="#00C800"/>
<circle cx="460.668" cy="112.916" r="6.99022" fill="white"/>
<circle cx="339.942" cy="192.154" r="6.99022" fill="#00C800"/>
<circle cx="391.153" cy="241.66" r="6.99022" fill="#00C800"/>
<circle cx="329.383" cy="222.701" r="6.99022" fill="#96FF00"/>
<circle cx="358.656" cy="247.218" r="6.99022" fill="#96FF00"/>
<circle cx="291.338" cy="206.441" r="6.99022" fill="#96FF00"/>
<circle cx="468.423" cy="6.05474" r="6.99022" fill="#96FF00"/>
<circle cx="477.743" cy="47.9961" r="6.99022" fill="white"/>
<circle cx="425.504" cy="201.447" r="6.99022" fill="#00C800"/>
<circle cx="450.092" cy="255.01" r="6.99022" fill="white"/>
<circle cx="451.944" cy="230.017" r="6.99022" fill="#96FF00"/>
<circle cx="427.306" cy="243.427" r="6.99022" fill="#96FF00"/>
<circle cx="481.73" cy="226.325" r="6.99022" fill="#00C800"/>
<circle cx="513.091" cy="247.296" r="6.99022" fill="white"/>
<circle cx="549.339" cy="262.9" r="6.99022" fill="#00C800"/>
<circle cx="502.127" cy="210.981" r="6.99022" fill="white"/>
<circle cx="543.313" cy="202.082" r="6.99022" fill="white"/>
<circle cx="664.149" cy="201.781" r="6.99022" fill="white"/>
<circle cx="480.397" cy="248.578" r="6.99022" fill="#96FF00"/>
<circle cx="566.473" cy="238.429" r="6.99022" fill="#96FF00"/>
<circle cx="554.245" cy="229.79" r="6.99022" fill="#00C800"/>
<circle cx="562.464" cy="212.809" r="6.99022" fill="#96FF00"/>
<circle cx="496.384" cy="183.14" r="6.99022" fill="#00C800"/>
<circle cx="463.763" cy="136.539" r="6.99022" fill="#00C800"/>
<circle cx="603.99" cy="223.788" r="6.99022" fill="#96FF00"/>
<circle cx="499.433" cy="93.5345" r="6.99022" fill="white"/>
<circle cx="535.062" cy="163.159" r="6.99022" fill="#96FF00"/>
<circle cx="453.928" cy="70.152" r="6.99022" fill="#00C800"/>
<circle cx="450.142" cy="41.9623" r="6.99022" fill="#96FF00"/>
<circle cx="493.367" cy="121.336" r="6.99022" fill="#96FF00"/>
<circle cx="341.53" cy="212.578" r="6.99022" fill="#96FF00"/>
<circle cx="425.449" cy="97.8561" r="6.99022" fill="#00C800"/>
<circle cx="469.261" cy="64.3794" r="6.99022" fill="#00C800"/>
<circle cx="390.885" cy="222.937" r="6.99022" fill="#00C800"/>
<circle cx="557.285" cy="178.292" r="6.99022" fill="#00C800"/>
<circle cx="580.312" cy="119.509" r="6.99022" fill="#96FF00"/>
<circle cx="509.95" cy="64.8678" r="6.99022" fill="#96FF00"/>
<circle cx="391.422" cy="186.908" r="6.99022" fill="white"/>
<circle cx="360.89" cy="200.546" r="6.99022" fill="#00C800"/>
<circle cx="442.611" cy="200.617" r="6.99022" fill="white"/>
<circle cx="429.841" cy="178.319" r="6.99022" fill="#00C800"/>
<circle cx="583.675" cy="208.529" r="6.99022" fill="#00C800"/>
<circle cx="564.066" cy="150.155" r="6.99022" fill="#00C800"/>
<circle cx="415.551" cy="197.641" r="6.99022" fill="white"/>
<circle cx="609.648" cy="188.092" r="6.99022" fill="#96FF00"/>
<circle cx="467.827" cy="217.617" r="6.99022" fill="#00C800"/>
<circle cx="483.273" cy="200.4" r="6.99022" fill="#96FF00"/>
</g>
<defs>
<clipPath id="clip0_1401_6402">
<rect width="923" height="384" fill="white"/>
</clipPath>
</defs>
</svg>
