<svg width="38" height="38" viewBox="0 0 38 38" fill="none" xmlns="http://www.w3.org/2000/svg">
<path d="M26.9548 14.6342C29.2147 16.2488 31.9832 17.1988 34.9733 17.1988V11.4479C34.4074 11.4481 33.8429 11.3891 33.2893 11.2718V15.7986C30.2995 15.7986 27.5313 14.8486 25.2708 13.2341V24.97C25.2708 30.8409 20.5091 35.5998 14.6356 35.5998C12.444 35.5998 10.4071 34.9376 8.71497 33.8019C10.6462 35.7756 13.3395 36.9999 16.3192 36.9999C22.1931 36.9999 26.955 32.241 26.955 26.3698V14.6342H26.9548V14.6342ZM29.0321 8.83224C27.8772 7.57112 27.1189 5.94136 26.9548 4.13959V3.3999H25.359C25.7607 5.68995 27.1307 7.64644 29.0321 8.83224ZM12.43 29.2968C11.7847 28.4511 11.436 27.4167 11.4376 26.353C11.4376 23.6679 13.6155 21.4908 16.3026 21.4908C16.8034 21.4906 17.3011 21.5673 17.7784 21.7186V15.8392C17.2206 15.7628 16.6578 15.7304 16.0951 15.7423V20.3185C15.6175 20.1672 15.1195 20.0903 14.6186 20.0908C11.9316 20.0908 9.75375 22.2677 9.75375 24.9532C9.75375 26.852 10.8424 28.4959 12.43 29.2968Z" fill="#FF004F"/>
<path d="M25.2709 13.234C27.5314 14.8485 30.2995 15.7985 33.2894 15.7985V11.2717C31.6204 10.9164 30.143 10.0447 29.0321 8.83224C27.1307 7.64632 25.7607 5.68983 25.3591 3.3999H21.1674V26.3696C21.1579 29.0474 18.9837 31.2156 16.3024 31.2156C14.7224 31.2156 13.3187 30.4629 12.4297 29.2968C10.8422 28.4959 9.75356 26.8519 9.75356 24.9533C9.75356 22.268 11.9314 20.0909 14.6185 20.0909C15.1333 20.0909 15.6295 20.171 16.095 20.3186V15.7424C10.3246 15.8615 5.68384 20.574 5.68384 26.3697C5.68384 29.2629 6.83949 31.8857 8.71514 33.802C10.4072 34.9376 12.4442 35.5999 14.6358 35.5999C20.5094 35.5999 25.271 30.8408 25.271 24.97V13.234H25.2709Z" fill="white"/>
<path d="M33.2893 11.2718V10.0478C31.7844 10.0501 30.309 9.62882 29.0321 8.8322C30.1624 10.0691 31.6508 10.9219 33.2893 11.2718ZM25.359 3.39998C25.3207 3.18112 25.2913 2.96082 25.2709 2.73969V2H19.4833V24.9699C19.4741 27.6474 17.3 29.8156 14.6184 29.8156C13.8312 29.8156 13.0879 29.6288 12.4296 29.2969C13.3186 30.4629 14.7223 31.2156 16.3024 31.2156C18.9834 31.2156 21.158 29.0476 21.1674 26.3698V3.39998H25.359ZM16.0952 15.7425V14.4394C15.6116 14.3734 15.124 14.3402 14.6359 14.3404C8.76172 14.3403 4 19.0995 4 24.9699C4 28.6504 5.87144 31.8939 8.71523 33.8019C6.83959 31.8856 5.68394 29.2627 5.68394 26.3697C5.68394 20.5741 10.3246 15.8616 16.0952 15.7425Z" fill="#00F2EA"/>
</svg>
